# xmcd CD database file
#
# Track frame offsets:
#	150
#	14653
#	27167
#	41433
#	54468
#	67456
#	86033
#	100489
#	113903
#	129496
#	142862
#	155091
#	168315
#	179597
#	193011
#	207088
#	219886
#
# Disc length: 3111 seconds
#
# Revision: 1
# Processed by: cddbd v1.5.1PL0 Copyright (c) Steve Scherf et al.
# Submitted via: CDex 1.50beta9
#
DISCID=f80c2511
DTITLE=Gerry Mulligan - My Funny Valentine - CD2
DYEAR=1900
DGENRE=Jazz
TTITLE0=Walking Shoes
TTITLE1=Freeway
TTITLE2=Frenesi
TTITLE3=Nights At The Turntable
TTITLE4=Aren't You Glad You're You
TTITLE5=Moonlight In Vermont
TTITLE6=The Lady Is A Tramp
TTITLE7=Turnstile
TTITLE8=Makin' Whoopee
TTITLE9=Cherry
TTITLE10=Love Me Or Leave Me
TTITLE11=Swing House
TTITLE12=Jeru
TTITLE13=I May Be Wrong
TTITLE14=I'm Beginning To See The Light
TTITLE15=Tea For Two
TTITLE16=Five Brothers
EXTD=
EXTT0=
EXTT1=
EXTT2=
EXTT3=
EXTT4=
EXTT5=
EXTT6=
EXTT7=
EXTT8=
EXTT9=
EXTT10=
EXTT11=
EXTT12=
EXTT13=
EXTT14=
EXTT15=
EXTT16=
PLAYORDER=
